G04*
G04 #@! TF.GenerationSoftware,Altium Limited,Altium Designer,25.6.2 (33)*
G04*
G04 Layer_Color=16711935*
%FSLAX44Y44*%
%MOMM*%
G71*
G04*
G04 #@! TF.SameCoordinates,2946A9A4-FF45-4ECA-B3A8-7F3B2984B9D4*
G04*
G04*
G04 #@! TF.FilePolarity,Negative*
G04*
G01*
G75*
%ADD10C,2.1032*%
%ADD11R,2.1032X2.1032*%
%ADD12R,1.8532X1.8532*%
%ADD13C,1.8532*%
%ADD14C,5.1532*%
D10*
X387250Y374600D02*
D03*
X332750D02*
D03*
X387250Y425400D02*
D03*
Y400000D02*
D03*
X332750D02*
D03*
Y570000D02*
D03*
X387250D02*
D03*
Y595400D02*
D03*
X332750Y544600D02*
D03*
X387250D02*
D03*
X332750Y740000D02*
D03*
X387250D02*
D03*
Y765400D02*
D03*
X332750Y714600D02*
D03*
X387250D02*
D03*
X332750Y910000D02*
D03*
X387250D02*
D03*
Y935400D02*
D03*
X332750Y884600D02*
D03*
X387250D02*
D03*
X112750Y910000D02*
D03*
X167250D02*
D03*
Y935400D02*
D03*
X112750Y884600D02*
D03*
X167250D02*
D03*
X112750Y740000D02*
D03*
X167250D02*
D03*
Y765400D02*
D03*
X112750Y714600D02*
D03*
X167250D02*
D03*
X164500Y544600D02*
D03*
X110000D02*
D03*
X164500Y595400D02*
D03*
Y570000D02*
D03*
X110000D02*
D03*
X112750Y230000D02*
D03*
X167250D02*
D03*
Y255400D02*
D03*
X112750Y204600D02*
D03*
X167250D02*
D03*
X387250D02*
D03*
X332750D02*
D03*
X387250Y255400D02*
D03*
Y230000D02*
D03*
X332750D02*
D03*
X167250Y374600D02*
D03*
X112750D02*
D03*
X167250Y425400D02*
D03*
Y400000D02*
D03*
X112750D02*
D03*
D11*
X332750Y425400D02*
D03*
Y595400D02*
D03*
Y765400D02*
D03*
Y935400D02*
D03*
X112750D02*
D03*
Y765400D02*
D03*
X110000Y595400D02*
D03*
X112750Y255400D02*
D03*
X332750D02*
D03*
X112750Y425400D02*
D03*
D12*
X345900Y133400D02*
D03*
D13*
X318500D02*
D03*
X291100D02*
D03*
X263700D02*
D03*
X236300D02*
D03*
X208900D02*
D03*
X181500D02*
D03*
X154100D02*
D03*
X332200Y105000D02*
D03*
X304800D02*
D03*
X277400D02*
D03*
X250000D02*
D03*
X222600D02*
D03*
X195200D02*
D03*
X167800D02*
D03*
D14*
X83400Y119200D02*
D03*
X416600D02*
D03*
M02*
