M48
;Layer_Color=9474304
;FILE_FORMAT=4:4
METRIC,LZ
;TYPE=PLATED
T01F00S00C1.0000
T02F00S00C1.1000
T03F00S00C3.3000
%
T01
X0011275Y002046
Y0023
Y002554
X0016725
Y0023
Y002046
X0033275
Y0023
Y002554
X0038725
Y0023
Y002046
Y003746
Y004
Y004254
X0033275
Y004
Y003746
Y005446
Y0057
Y005954
X0038725
Y0057
Y005446
X001645
Y0057
Y005954
X0011
Y0057
Y005446
X0011275Y004254
Y004
Y003746
X0016725
Y004
Y004254
Y007146
Y0074
Y007654
X0011275
Y0074
Y007146
Y008846
Y0091
Y009354
X0016725
Y0091
Y008846
X0033275
Y0091
Y009354
X0038725
Y0091
Y008846
Y007654
Y0074
Y007146
X0033275
Y0074
Y007654
T02
X001678Y00105
X001952
X001815Y001334
X001541
X002089
X002363
X002637
X002911
X003185
X003459
X003322Y00105
X003048
X002774
X0025
X002226
T03
X000834Y001192
X004166
M30
